<svg id="punk-07" viewBox="0 0 50 50" xmlns="http://www.w3.org/2000/svg" width="50" height="50">
  <g id="color">
    <path fill="#fff" d="M9.615 19.398s-1.422 -1.019 -0.418 -2.169c0 0 -1.583 -1.398 -0.297 -2.711 0 0 -0.86 -2.828 1.485 -2.992 0 0 -0.271 -2.828 2.833 -2.499 0 0 1.737 -1.251 3.024 0.173 0 0 1.759 -1.117 2.669 0.279"/>
    <path fill="#fff" d="M40.385 19.398s1.422 -1.019 0.418 -2.169c0 0 1.583 -1.398 0.297 -2.711 0 0 0.86 -2.828 -1.485 -2.992 0 0 0.271 -2.828 -2.833 -2.499 0 0 -1.737 -1.251 -3.024 0.173 0 0 -1.759 -1.117 -2.669 0.279"/>
    <path cx="36" cy="36" r="23" fill="#fff" d="M40.972 25A15.972 15.972 0 0 1 25 40.972 15.972 15.972 0 0 1 9.028 25a15.972 15.972 0 0 1 31.944 0z"/>
    <path fill="#fff" d="M34.588 32.324s-1.097 5.854 -9.59 6.083c-8.458 -0.306 -9.59 -6.083 -9.59 -6.083 -0.319 -1.201 -0.861 -4 1.583 -2.646 1.875 1.042 3.736 3.035 8.007 3.16 4.278 -0.125 6.132 -2.118 8.007 -3.16 2.444 -1.354 1.91 1.444 1.583 2.646z"/>
    <path fill="#000" d="M24.999 36.621c-4.21 0 -6.896 -2.299 -7.577 -3.412s0.382 -0.803 0.601 -0.697c1.607 0.775 2.806 1.874 6.976 2.016m0 2.093c4.21 0 6.896 -2.299 7.577 -3.412s-0.382 -0.803 -0.601 -0.697c-1.606 0.775 -2.806 1.874 -6.976 2.016"/>
  </g>
  <g id="hair"/>
  <g id="skin"/>
  <g id="skin-shadow"/>
  <g id="line">
    <path x1="47.5" x2="42.5" y1="29" y2="33" fill="none" stroke="#000000" stroke-linecap="round" stroke-linejoin="round" stroke-miterlimit="10" stroke-width="1.3888888888888893" d="m32.986 20.139 -3.472 2.778"/>
    <path x1="42.5" x2="47.5" y1="29" y2="33" fill="none" stroke="#000000" stroke-linecap="round" stroke-linejoin="round" stroke-miterlimit="10" stroke-width="1.3888888888888893" d="m29.514 20.139 3.472 2.778"/>
    <path x1="29.5" x2="24.5" y1="29" y2="33" fill="none" stroke="#000000" stroke-linecap="round" stroke-linejoin="round" stroke-miterlimit="10" stroke-width="1.3888888888888893" d="m20.486 20.139 -3.472 2.778"/>
    <path x1="24.5" x2="29.5" y1="29" y2="33" fill="none" stroke="#000000" stroke-linecap="round" stroke-linejoin="round" stroke-miterlimit="10" stroke-width="1.3888888888888893" d="m17.014 20.139 3.472 2.778"/>
    <path fill="none" stroke="#000000" stroke-linecap="round" stroke-linejoin="round" stroke-miterlimit="10" stroke-width="1.3888888888888893" d="M16.28 14.705c2.014 -1.08 4.301 -1.12 6.011 0"/>
    <path fill="none" stroke="#000000" stroke-linecap="round" stroke-linejoin="round" stroke-miterlimit="10" stroke-width="1.3888888888888893" d="M27.709 14.705c2.013 -1.08 4.301 -1.12 6.011 0"/>
    <path fill="none" stroke="#000000" stroke-linecap="round" stroke-linejoin="round" stroke-miterlimit="10" stroke-width="1.3888888888888893" d="M34.589 32.324s-1.097 5.854 -9.59 6.083c-8.458 -0.306 -9.59 -6.083 -9.59 -6.083 -0.319 -1.201 -0.861 -4 1.583 -2.646 1.875 1.042 3.736 3.035 8.007 3.16 4.278 -0.125 6.132 -2.118 8.007 -3.16 2.444 -1.354 1.91 1.444 1.583 2.646z"/>
    <path fill="none" stroke="#000000" stroke-linecap="round" stroke-linejoin="round" stroke-miterlimit="10" stroke-width="1.3888888888888893" d="M9.615 19.398s-1.422 -1.019 -0.418 -2.169c0 0 -1.583 -1.398 -0.297 -2.711 0 0 -0.86 -2.828 1.485 -2.992 0 0 -0.271 -2.828 2.833 -2.499 0 0 1.737 -1.251 3.024 0.173 0 0 1.759 -1.117 2.669 0.279"/>
    <path cx="36" cy="36" r="23" fill="none" stroke="#000000" stroke-linecap="round" stroke-linejoin="round" stroke-miterlimit="10" stroke-width="1.3888888888888893" d="M40.972 25A15.972 15.972 0 0 1 25 40.972 15.972 15.972 0 0 1 9.028 25a15.972 15.972 0 0 1 31.944 0z"/>
    <path fill="none" stroke="#000000" stroke-linecap="round" stroke-linejoin="round" stroke-miterlimit="10" stroke-width="1.3888888888888893" d="M40.385 19.398s1.422 -1.019 0.418 -2.169c0 0 1.583 -1.398 0.297 -2.711 0 0 0.86 -2.828 -1.485 -2.992 0 0 0.271 -2.828 -2.833 -2.499 0 0 -1.737 -1.251 -3.024 0.173 0 0 -1.759 -1.117 -2.669 0.279"/>
    <path cx="36.0563" cy="38.9779" r="2.7351" fill="#000" d="M26.938 27.068a1.899 1.899 0 0 1 -1.899 1.899 1.899 1.899 0 0 1 -1.899 -1.899 1.899 1.899 0 0 1 3.798 0z"/>
  </g>
  <g id="color-foreground"/>
</svg>
